<?xml version="1.0" encoding="UTF-8"?>
<svg version="1.1" xmlns="http://www.w3.org/2000/svg" width="11814" height="11815">
<path d="M0 0 C3898.62 0 7797.24 0 11814 0 C11814 3898.95 11814 7797.9 11814 11815 C7915.38 11815 4016.76 11815 0 11815 C0 7916.05 0 4017.1 0 0 Z " fill="#0C000F" transform="translate(0,0)"/>
<path d="M0 0 C3.16739654 -0.00132741 6.33478757 -0.00390114 9.50218201 -0.00778198 C64.84973767 -0.07521996 120.0850266 1.06917616 175.34850311 4.40382385 C176.50546188 4.47315125 177.66242065 4.54247864 178.85443878 4.61390686 C259.90964107 9.55251867 340.71497141 17.67758494 869.98522186 130.31007385 C870.91139313 130.59888428 871.83756439 130.8876947 872.79180145 131.18525696 C925.99446024 147.80113288 978.85809397 165.56666886 1030.98522186 185.31007385 C1032.11764313 185.73888855 1033.25006439 186.16770325 1034.41680145 186.60951233 C1065.46744334 198.38194878 1096.34705251 210.50329157 1126.9307785 223.4420929 C1130.02453012 224.74917078 1133.12220029 226.0468133 1136.21959686 227.3452301 C1142.4848563 229.976834 1148.73787519 232.63625228 1154.98522186 235.31007385 C1156.09107635 235.78267639 1157.19693085 236.25527893 1158.33629608 236.74220276 C1199.47424094 254.35465529 1240.10505239 273.05592334 1280.33507538 292.64894104 C1287.37153268 296.07585246 1294.41849644 299.47622043 1301.4920578 302.82618713 C1310.00676439 306.86030842 1318.41163685 311.03553395 1326.72179413 315.47608948 C1333.02170697 318.83463701 1339.39864958 322.0202487 1345.79772186 325.18507385 C1354.52083197 329.51062877 1363.10488834 334.03405848 1371.62731171 338.74147034 C1378.50010203 342.52905686 1385.44505365 346.15744668 1392.42272186 349.74757385 C1402.43385016 354.91339291 1412.26326878 360.34323743 1422.04381561 365.9311676 C1427.3321308 368.95065643 1432.65449819 371.90530388 1437.98522186 374.84913635 C1450.70182366 381.87216871 1463.29560325 389.07800535 1475.81432343 396.44728088 C1479.18717215 398.42871265 1482.5660586 400.39964828 1485.94615936 402.3686676 C1517.47119024 420.74658886 1548.47863174 439.92380233 1579.23668671 459.55860901 C1582.06264398 461.35940999 1584.89252889 463.15389019 1587.72350311 464.9467926 C1597.49687555 471.1397629 1607.21718235 477.39099912 1616.81432343 483.85353088 C1619.39490466 485.5849465 1621.98275275 487.3052228 1624.57115936 489.0249176 C1636.38558339 496.87622733 1648.15251696 504.78948091 1659.83727264 512.83253479 C1661.89376936 514.24716517 1663.95270442 515.65816093 1666.01256561 517.06788635 C1682.08114679 528.07280541 1698.012293 539.26243018 1713.77184296 550.70558167 C1715.99217889 552.31511704 1718.21648229 553.91900172 1720.44225311 555.52101135 C1739.83344949 569.48089684 1759.00008797 583.72760717 1777.99108124 598.22657776 C1783.42348738 602.37067773 1788.87998772 606.47954139 1794.36022186 610.56007385 C1800.79954596 615.36409108 1807.08791841 620.33687282 1813.34069061 625.38038635 C1816.84191405 628.20332334 1820.37838603 630.97909504 1823.92272186 633.74757385 C1829.68034447 638.25137584 1835.35825077 642.84773553 1841.01964569 647.47169495 C1845.34119392 650.99473596 1849.70771697 654.4515033 1854.11022186 657.87257385 C1859.51991312 662.08514535 1864.74979587 666.47526913 1869.93566132 670.95948792 C1877.54987973 677.54278222 1885.313668 683.90715392 1893.40319061 689.8999176 C1893.92526093 690.36526917 1894.44733124 690.83062073 1894.98522186 691.31007385 C1894.98522186 691.97007385 1894.98522186 692.63007385 1894.98522186 693.31007385 C1895.53951874 693.55628479 1896.09381561 693.80249573 1896.66490936 694.0561676 C1904.60825406 698.34878317 1911.38781626 705.47630485 1917.98912811 711.56007385 C1919.86972861 713.35789364 1919.86972861 713.35789364 1921.98522186 714.31007385 C1921.98522186 714.97007385 1921.98522186 715.63007385 1921.98522186 716.31007385 C1922.57835175 716.5855304 1923.17148163 716.86098694 1923.78258514 717.14479065 C1925.87738313 718.25302284 1927.44905191 719.40200613 1929.22740936 720.9546051 C1930.11492889 721.72320862 1930.11492889 721.72320862 1931.02037811 722.50733948 C1931.62752655 723.04036682 1932.23467499 723.57339417 1932.86022186 724.12257385 C1934.06561553 725.17113673 1935.27134173 726.21931749 1936.47740936 727.2671051 C1937.05974335 727.77709045 1937.64207733 728.28707581 1938.2420578 728.81251526 C1939.94191118 730.27286548 1941.68082332 731.67192103 1943.43053436 733.0717926 C1944.27358124 733.81042542 1945.11662811 734.54905823 1945.98522186 735.31007385 C1945.98522186 735.97007385 1945.98522186 736.63007385 1945.98522186 737.31007385 C1946.56272186 737.57819885 1947.14022186 737.84632385 1947.73522186 738.12257385 C1950.04072229 739.33936574 1952.00578379 740.61341264 1953.98522186 742.31007385 C1953.98522186 742.97007385 1953.98522186 743.63007385 1953.98522186 744.31007385 C1954.52147186 744.53694885 1955.05772186 744.76382385 1955.61022186 744.99757385 C1958.80982348 746.76577474 1961.27559409 748.84677588 1963.98522186 751.31007385 C1963.98522186 751.97007385 1963.98522186 752.63007385 1963.98522186 753.31007385 C1964.54209686 753.55757385 1965.09897186 753.80507385 1965.67272186 754.06007385 C1968.409331 755.53932203 1970.66173056 757.24474825 1972.98522186 759.31007385 C1972.98522186 759.97007385 1972.98522186 760.63007385 1972.98522186 761.31007385 C1973.56787811 761.57819885 1974.15053436 761.84632385 1974.75084686 762.12257385 C1977.01308787 763.32488376 1978.79098504 764.64833298 1980.73522186 766.31007385 C1981.34881561 766.82569885 1981.96240936 767.34132385 1982.59459686 767.87257385 C1983.98522186 769.31007385 1983.98522186 769.31007385 1983.98522186 771.31007385 C1984.55756561 771.56788635 1985.12990936 771.82569885 1985.71959686 772.09132385 C1988.19651181 773.42373327 1990.11933847 774.96063503 1992.23522186 776.81007385 C1992.94162811 777.41851135 1993.64803436 778.02694885 1994.37584686 778.65382385 C1995.98522186 780.31007385 1995.98522186 780.31007385 1995.98522186 782.31007385 C1996.54725311 782.55757385 1997.10928436 782.80507385 1997.68834686 783.06007385 C2000.37614755 784.52282253 2002.44927669 786.27812258 2004.73522186 788.31007385 C2005.53444061 789.01132385 2006.33365936 789.71257385 2007.15709686 790.43507385 C2008.98522186 792.31007385 2008.98522186 792.31007385 2008.98522186 794.31007385 C2009.64522186 794.31007385 2010.30522186 794.31007385 2010.98522186 794.31007385 C2010.98522186 794.97007385 2010.98522186 795.63007385 2010.98522186 796.31007385 C2011.56272186 796.55886292 2012.14022186 796.80765198 2012.73522186 797.0639801 C2015.30307003 798.48610435 2016.9627123 800.12630894 2018.98522186 802.24757385 C2021.00033454 804.35320917 2022.8718421 806.22799163 2025.23522186 807.9389801 C2025.81272186 808.39144104 2026.39022186 808.84390198 2026.98522186 809.31007385 C2026.98522186 809.97007385 2026.98522186 810.63007385 2026.98522186 811.31007385 C2027.64522186 811.31007385 2028.30522186 811.31007385 2028.98522186 811.31007385 C2028.98522186 811.97007385 2028.98522186 812.63007385 2028.98522186 813.31007385 C2029.52404999 813.52019104 2030.06287811 813.73030823 2030.61803436 813.9467926 C2033.87896416 815.82478683 2036.27642557 818.43139056 2038.86022186 821.12257385 C2041.91411112 824.2819043 2044.93301366 827.32357434 2048.36803436 830.0717926 C2049.23170624 830.81042542 2050.09537811 831.54905823 2050.98522186 832.31007385 C2050.98522186 832.97007385 2050.98522186 833.63007385 2050.98522186 834.31007385 C2051.64522186 834.31007385 2052.30522186 834.31007385 2052.98522186 834.31007385 C2052.98522186 834.97007385 2052.98522186 835.63007385 2052.98522186 836.31007385 C2053.64522186 836.31007385 2054.30522186 836.31007385 2054.98522186 836.31007385 C2054.98522186 836.97007385 2054.98522186 837.63007385 2054.98522186 838.31007385 C2055.54119049 838.54138 2056.09715912 838.77268616 2056.66997528 839.01100159 C2059.60884412 840.65998491 2061.64284182 842.71322275 2064.02916718 845.0952301 C2064.51742981 845.5799881 2065.00569244 846.06474609 2065.50875092 846.56419373 C2067.11533872 848.1620046 2068.71453067 849.76698927 2070.31334686 851.37257385 C2071.42834978 852.4862294 2072.54364944 853.59958793 2073.65923309 854.71266174 C2075.99251736 857.04300059 2078.32215317 859.37691117 2080.64928436 861.71339417 C2083.63761902 864.71314947 2086.63487752 867.70380216 2089.63489914 870.69186401 C2091.93754666 872.98729982 2094.23542826 875.28745883 2096.53187561 877.58909607 C2097.63565107 878.69420856 2098.74092202 879.79782939 2099.84768677 880.89994812 C2101.38962406 882.43682864 2102.92504163 883.97993485 2104.45885468 885.5249176 C2105.77312439 886.8415741 2105.77312439 886.8415741 2107.11394501 888.18482971 C2108.98522186 890.31007385 2108.98522186 890.31007385 2108.98522186 892.31007385 C2109.64522186 892.31007385 2110.30522186 892.31007385 2110.98522186 892.31007385 C2110.98522186 892.97007385 2110.98522186 893.63007385 2110.98522186 894.31007385 C2111.64522186 894.31007385 2112.30522186 894.31007385 2112.98522186 894.31007385 C2112.98522186 894.97007385 2112.98522186 895.63007385 2112.98522186 896.31007385 C2113.64522186 896.31007385 2114.30522186 896.31007385 2114.98522186 896.31007385 C2114.98522186 896.97007385 2114.98522186 897.63007385 2114.98522186 898.31007385 C2115.87854218 898.6967926 2115.87854218 898.6967926 2116.78990936 899.09132385 C2119.17996556 900.41818779 2120.39025298 901.70116728 2122.11022186 903.81007385 C2125.82426607 908.22808722 2129.88818002 912.2077057 2134.04381561 916.20851135 C2135.98522186 918.31007385 2135.98522186 918.31007385 2135.98522186 920.31007385 C2136.64522186 920.31007385 2137.30522186 920.31007385 2137.98522186 920.31007385 C2137.98522186 920.97007385 2137.98522186 921.63007385 2137.98522186 922.31007385 C2138.97522186 922.64007385 2139.96522186 922.97007385 2140.98522186 923.31007385 C2142.66881561 925.0171051 2142.66881561 925.0171051 2144.42272186 927.12257385 C2146.3648952 929.42273253 2148.26351346 931.58122977 2150.42272186 933.68507385 C2151.98522186 935.31007385 2151.98522186 935.31007385 2151.98522186 937.31007385 C2152.64522186 937.31007385 2153.30522186 937.31007385 2153.98522186 937.31007385 C2153.98522186 937.97007385 2153.98522186 938.63007385 2153.98522186 939.31007385 C2154.97522186 939.64007385 2155.96522186 939.97007385 2156.98522186 940.31007385 C2158.77428436 942.05226135 2158.77428436 942.05226135 2160.61022186 944.18507385 C2161.22123749 944.88374573 2161.83225311 945.5824176 2162.46178436 946.30226135 C2163.98522186 948.31007385 2163.98522186 948.31007385 2164.98522186 951.31007385 C2165.64522186 951.31007385 2166.30522186 951.31007385 2166.98522186 951.31007385 C2166.98522186 951.97007385 2166.98522186 952.63007385 2166.98522186 953.31007385 C2167.64522186 953.31007385 2168.30522186 953.31007385 2168.98522186 953.31007385 C2170.67662811 954.9546051 2170.67662811 954.9546051 2172.54772186 957.12257385 C2173.16776093 957.83026917 2173.78779999 958.53796448 2174.42662811 959.2671051 C2175.98522186 961.31007385 2175.98522186 961.31007385 2176.98522186 964.31007385 C2177.64522186 964.31007385 2178.30522186 964.31007385 2178.98522186 964.31007385 C2180.67662811 965.9546051 2180.67662811 965.9546051 2182.54772186 968.12257385 C2183.16776093 968.83026917 2183.78779999 969.53796448 2184.42662811 970.2671051 C2185.98522186 972.31007385 2185.98522186 972.31007385 2186.98522186 975.31007385 C2187.64522186 975.31007385 2188.30522186 975.31007385 2188.98522186 975.31007385 C2190.71178436 976.98976135 2190.71178436 976.98976135 2192.61022186 979.18507385 C2193.24186249 979.90437073 2193.87350311 980.6236676 2194.52428436 981.36476135 C2195.98522186 983.31007385 2195.98522186 983.31007385 2195.98522186 985.31007385 C2196.64522186 985.31007385 2197.30522186 985.31007385 2197.98522186 985.31007385 C2199.71178436 986.98976135 2199.71178436 986.98976135 2201.61022186 989.18507385 C2202.24186249 989.90437073 2202.87350311 990.6236676 2203.52428436 991.36476135 C2204.98522186 993.31007385 2204.98522186 993.31007385 2204.98522186 995.31007385 C2205.64522186 995.31007385 2206.30522186 995.31007385 2206.98522186 995.31007385 C2211.98522186 1000.78626433 2211.98522186 1000.78626433 2211.98522186 1003.31007385 C2212.64522186 1003.31007385 2213.30522186 1003.31007385 2213.98522186 1003.31007385 C2218.98522186 1008.78626433 2218.98522186 1008.78626433 2218.98522186 1011.31007385 C2219.64522186 1011.31007385 2220.30522186 1011.31007385 2220.98522186 1011.31007385 C2225.98522186 1016.78626433 2225.98522186 1016.78626433 2225.98522186 1019.31007385 C2226.64522186 1019.31007385 2227.30522186 1019.31007385 2227.98522186 1019.31007385 C2229.31794066 1020.77697944 2230.57436055 1022.31329886 2231.79772186 1023.87257385 C2235.55410736 1028.56956311 2239.40559213 1033.15390964 2243.36022186 1037.68507385 C2251.61875696 1047.17066005 2259.74430043 1056.75139643 2267.68053436 1066.5092926 C2269.75188719 1069.0265129 2271.85240369 1071.51359212 2273.96886444 1073.99269104 C2278.66562874 1079.49463848 2283.20839777 1085.08704899 2287.64879608 1090.79762268 C2291.34637051 1095.5370515 2295.15034486 1100.18130821 2298.98522186 1104.81007385 C2305.11238441 1112.21479737 2311.08902996 1119.72077887 2316.98522186 1127.31007385 C2318.08536728 1128.72292383 2319.18563345 1130.13567977 2320.28600311 1131.5483551 C2322.65404484 1134.58965381 2325.01958505 1137.63287789 2327.38365936 1140.67726135 C2329.73752064 1143.70765111 2332.09693713 1146.73356293 2334.46178436 1149.75538635 C2342.5183446 1160.06005098 2350.41002822 1170.47910605 2358.23180389 1180.96290588 C2359.8525723 1183.13250592 2361.47799996 1185.29847869 2363.10631561 1187.4624176 C2372.95585501 1200.55193706 2382.75100689 1213.68617035 2392.23448944 1227.04420471 C2394.48288468 1230.21092646 2396.74693044 1233.36506114 2399.03209686 1236.50538635 C2405.2231175 1245.01710397 2411.2855532 1253.59774943 2417.19957733 1262.30445862 C2420.10234502 1266.57376934 2423.038646 1270.81202364 2426.04454803 1275.0092926 C2434.99383703 1287.51451698 2443.41882264 1300.37848921 2451.9205246 1313.18963623 C2455.4590437 1318.52139581 2459.01184711 1323.84340184 2462.56920624 1329.16261292 C2473.74185888 1345.87747479 2484.69660017 1362.72287782 2495.38121796 1379.75392151 C2496.48452188 1381.51215469 2497.58908551 1383.26959783 2498.69469452 1385.02638245 C2529.44818507 1433.89598354 2559.15186551 1483.59635962 2586.46031952 1534.4780426 C2588.92670318 1539.05858222 2591.42621157 1543.62090924 2593.92272186 1548.18507385 C2595.43002704 1550.94871345 2596.93614878 1553.71299416 2598.44176483 1556.47755432 C2599.47605643 1558.37566427 2600.51155078 1560.2731193 2601.54821014 1562.16993713 C2624.64200552 1604.4673777 2646.8113858 1647.56368131 2666.81725311 1691.4077301 C2670.27524763 1698.98446106 2673.85767423 1706.50074454 2677.43224335 1714.02290344 C2684.86497906 1729.67939428 2692.07247995 1745.41594256 2698.98522186 1761.31007385 C2699.69078468 1762.92970432 2700.39635133 1764.54933312 2701.10192108 1766.16896057 C2718.12279466 1805.26913917 2734.52481335 1844.56544541 2749.98522186 1884.31007385 C2750.32102264 1885.17332275 2750.65682343 1886.03657166 2751.00279999 1886.92597961 C2788.12259152 1982.46828904 2820.32912166 2080.03589383 2946.17272186 2829.37257385 C2946.20965149 2830.2999234 2946.24658112 2831.22727295 2946.28462982 2832.182724 C2946.55885365 2839.2240407 2946.78096399 2846.26640593 2946.98522186 2853.31007385 C2947.00579021 2854.00927193 2947.02635857 2854.70847 2947.0475502 2855.4288559 C2947.89774371 2884.47388576 2948.18745331 2913.50337204 2948.17272186 2942.56007385 C2948.17260227 2943.61444263 2948.17248268 2944.66881142 2948.17235947 2945.75513077 C2948.15887365 3040.29706653 2943.58605877 3134.63198021 2916.98522186 3372.31007385 C2916.80217499 3373.56110901 2916.61912811 3374.81214417 2916.43053436 3376.10108948 C2902.24194991 3472.73548434 2882.99765218 3568.62785527 2854.98522186 3678.31007385 C2854.42448692 3680.49821841 2853.86377616 3682.68636916 2853.30309296 3684.87452698 C2839.87242969 3737.16483853 2824.46711957 3788.89404457 2807.95470428 3840.28767395 C2807.01905444 3843.20459946 2806.08808943 3846.12297057 2805.15904999 3849.04200745 C2796.34425724 3876.72637313 2786.85547103 3904.14563463 2777.0054245 3931.47798157 C2776.02692946 3934.19429317 2775.05092765 3936.91148782 2774.07555389 3939.62892151 C2759.39863957 3980.47752523 2743.66438773 4020.92649675 2726.95409393 4060.98554993 C2725.98288538 4063.31567955 2725.01446536 4065.64695053 2724.0467453 4067.97853088 C2710.5887878 4100.38396775 2696.50492187 4132.51436069 2681.79772186 4164.37257385 C2681.467742 4165.0874295 2681.13776215 4165.80228516 2680.7977829 4166.5388031 C2678.66838593 4171.14496586 2676.52330475 4175.74366436 2674.37255096 4180.33988953 C2673.07201284 4183.12425984 2671.77674978 4185.91104573 2670.48213482 4188.69817352 C2660.16490365 4210.88999008 2649.3698501 4232.82425257 2638.39055634 4254.69502258 C2636.667806 4258.12960054 2634.94962863 4261.56645731 2633.2314167 4265.00330734 C2616.57732447 4298.3105032 2616.57732447 4298.3105032 2607.98522186 4314.31007385 C2607.38951385 4315.42857727 2606.79380585 4316.54708069 2606.18004608 4317.69947815 C2604.58060714 4320.69860139 2602.9728404 4323.69301943 2601.36022186 4326.68507385 C2600.77885468 4327.7639386 2600.19748749 4328.84280334 2599.59850311 4329.95436096 C2592.80030535 4342.54131071 2585.8922842 4355.06727073 2578.94872284 4367.57447815 C2578.01219619 4369.26148383 2577.07633584 4370.94885934 2576.1404953 4372.63624573 C2568.22294619 4386.8973473 2560.1273091 4401.04347883 2551.86412811 4415.10694885 C2549.87737651 4418.49392664 2547.89937776 4421.88595068 2545.92272186 4425.27882385 C2531.37751807 4450.22635717 2516.37459367 4474.8730559 2500.98522186 4499.31007385 C2500.199216 4500.55941711 2500.199216 4500.55941711 2499.39733124 4501.83399963 C2496.45262882 4506.51282559 2493.50002636 4511.18657456 2490.54039764 4515.85597229 C2489.44946228 4517.57749226 2488.35936529 4519.29954366 2487.26988983 4521.02198792 C2485.46859537 4523.86924288 2483.66469486 4526.71483246 2481.86022186 4529.56007385 C2481.32260223 4530.4103717 2480.7849826 4531.26066956 2480.23107147 4532.13673401 C2475.70078235 4539.26866271 2471.01792185 4546.29393475 2466.31884003 4553.31507874 C2464.09089569 4556.64792031 2461.87258363 4559.98715964 2459.65319061 4563.32569885 C2449.85721493 4578.05147397 2440.05774804 4592.77128494 2429.98522186 4607.31007385 C2429.35954315 4608.21370667 2428.73386444 4609.11733948 2428.08922577 4610.0483551 C2411.31619703 4634.25401069 2394.25865234 4658.22661988 2376.75572968 4681.91017151 C2374.98154222 4684.31506156 2373.21301538 4686.72401221 2371.44615936 4689.1342926 C2364.27047107 4698.91670408 2356.98885558 4708.60730891 2349.58971405 4718.22169495 C2347.98007707 4720.31677022 2346.37619565 4722.41611811 2344.77428436 4724.5171051 C2336.90911734 4734.83201965 2328.96843316 4745.0862971 2320.98522186 4755.31007385 C2320.49811737 4755.93510803 2320.01101288 4756.56014221 2319.50914764 4757.20411682 C2313.10136233 4765.42411443 2306.57511327 4773.5408458 2299.98912811 4781.6186676 C2297.55406008 4784.60650444 2295.13784773 4787.60854418 2292.73522186 4790.62257385 C2289.27941246 4794.95501415 2285.77777315 4799.24838314 2282.26256561 4803.5327301 C2280.77221985 4805.35028729 2279.28510693 4807.17050133 2277.80162811 4808.9936676 C2271.49263038 4816.74215145 2265.03994423 4824.36293154 2258.56920624 4831.97608948 C2257.1654138 4833.62840948 2255.76250389 4835.28147184 2254.36022186 4836.93507385 C2253.90292694 4837.47414368 2253.44563202 4838.0132135 2252.97447968 4838.56861877 C2250.06129173 4842.01199859 2247.19955411 4845.49277311 2244.36022186 4848.99757385 C2240.78940317 4853.38802886 2237.05364599 4857.58863274 2233.24303436 4861.77101135 C2230.09062787 4865.31610516 2227.12017086 4868.99944488 2224.12975311 4872.6811676 C2222.12416781 4875.13974485 2220.10520155 4877.58227161 2218.04772186 4879.99757385 C2217.50244843 4880.64081604 2216.95717499 4881.28405823 2216.39537811 4881.9467926 C2214.98522186 4883.31007385 2214.98522186 4883.31007385 2212.98522186 4883.31007385 C2212.71709686 4883.88757385 2212.44897186 4884.46507385 2212.17272186 4885.06007385 C2210.95592997 4887.36557428 2209.68188307 4889.33063578 2207.98522186 4891.31007385 C2207.32522186 4891.31007385 2206.66522186 4891.31007385 2205.98522186 4891.31007385 C2205.73772186 4891.86694885 2205.49022186 4892.42382385 2205.23522186 4892.99757385 C2203.75597368 4895.73418299 2202.05054747 4897.98658255 2199.98522186 4900.31007385 C2199.32522186 4900.31007385 2198.66522186 4900.31007385 2197.98522186 4900.31007385 C2197.75834686 4900.84632385 2197.53147186 4901.38257385 2197.29772186 4901.93507385 C2195.52952097 4905.13467547 2193.44851983 4907.60044608 2190.98522186 4910.31007385 C2190.32522186 4910.31007385 2189.66522186 4910.31007385 2188.98522186 4910.31007385 C2188.75834686 4910.84632385 2188.53147186 4911.38257385 2188.29772186 4911.93507385 C2186.52952097 4915.13467547 2184.44851983 4917.60044608 2181.98522186 4920.31007385 C2181.32522186 4920.31007385 2180.66522186 4920.31007385 2179.98522186 4920.31007385 C2179.72740936 4920.8824176 2179.46959686 4921.45476135 2179.20397186 4922.04444885 C2177.87156244 4924.5213638 2176.33466068 4926.44419046 2174.48522186 4928.56007385 C2173.87678436 4929.2664801 2173.26834686 4929.97288635 2172.64147186 4930.70069885 C2170.98522186 4932.31007385 2170.98522186 4932.31007385 2168.98522186 4932.31007385 C2168.72740936 4932.8824176 2168.46959686 4933.45476135 2168.20397186 4934.04444885 C2166.87156244 4936.5213638 2165.33466068 4938.44419046 2163.48522186 4940.56007385 C2162.87678436 4941.2664801 2162.26834686 4941.97288635 2161.64147186 4942.70069885 C2159.98522186 4944.31007385 2159.98522186 4944.31007385 2157.98522186 4944.31007385 C2157.98522186 4944.97007385 2157.98522186 4945.63007385 2157.98522186 4946.31007385 C2157.32522186 4946.31007385 2156.66522186 4946.31007385 2155.98522186 4946.31007385 C2155.75834686 4946.8514801 2155.53147186 4947.39288635 2155.29772186 4947.95069885 C2153.57227079 4951.05240257 2151.37228973 4953.43707486 2148.98522186 4956.06007385 C2148.30846405 4956.8199762 2148.30846405 4956.8199762 2147.61803436 4957.5952301 C2146.45161374 4958.87553203 2145.22238215 4960.09799114 2143.98522186 4961.31007385 C2143.32522186 4961.31007385 2142.66522186 4961.31007385 2141.98522186 4961.31007385 C2141.98522186 4961.97007385 2141.98522186 4962.63007385 2141.98522186 4963.31007385 C2141.32522186 4963.31007385 2140.66522186 4963.31007385 2139.98522186 4963.31007385 C2139.73385468 4963.89015198 2139.48248749 4964.4702301 2139.22350311 4965.06788635 C2137.83077536 4967.58973408 2136.25585734 4969.20151464 2134.17272186 4971.18507385 C2131.65127301 4973.62872846 2129.29339359 4976.05992916 2127.11022186 4978.81007385 C2126.05834686 4980.04757385 2126.05834686 4980.04757385 2124.98522186 4981.31007385 C2124.32522186 4981.31007385 2123.66522186 4981.31007385 2122.98522186 4981.31007385 C2122.98522186 4981.97007385 2122.98522186 4982.63007385 2122.98522186 4983.31007385 C2122.32522186 4983.31007385 2121.66522186 4983.31007385 2120.98522186 4983.31007385 C2120.98522186 4983.97007385 2120.98522186 4984.63007385 2120.98522186 4985.31007385 C2120.32522186 4985.31007385 2119.66522186 4985.31007385 2118.98522186 4985.31007385 C2118.7150676 4985.9058725 2118.44491333 4986.50167114 2118.16657257 4987.11552429 C2116.99247607 4989.29659799 2115.83861336 4990.6933552 2114.08361053 4992.42286682 C2113.20711098 4993.29429825 2113.20711098 4993.29429825 2112.31290436 4994.18333435 C2111.68269882 4994.80008026 2111.05249329 4995.41682617 2110.40319061 4996.05226135 C2109.75199753 4996.69825287 2109.10080444 4997.34424438 2108.42987823 4998.0098114 C2106.34885693 5000.07304434 2104.26128565 5002.12947852 2102.17272186 5004.18507385 C2100.0957145 5006.2343492 2098.02022288 5008.28510156 2095.9477005 5010.33891296 C2094.65939761 5011.61508591 2093.36843128 5012.88857767 2092.07437897 5014.15892029 C2089.4090982 5016.79488643 2086.91582913 5019.395537 2084.54894257 5022.31056213 C2081.93435756 5025.36958427 2079.15955708 5027.84257465 2076.1092453 5030.44825745 C2072.43835521 5033.66598248 2069.04071616 5037.15260012 2065.61022186 5040.62257385 C2064.84145721 5041.39512512 2064.07269257 5042.16767639 2063.28063202 5042.96363831 C2060.84636421 5045.41001567 2058.41538081 5047.85961525 2055.98522186 5050.31007385 C2052.77986008 5053.54221073 2049.57108113 5056.7708992 2046.36022186 5059.99757385 C2045.63915253 5060.72694153 2044.91808319 5061.4563092 2044.17516327 5062.20777893 C2040.15979163 5066.24225363 2036.05047021 5070.0927361 2031.72460175 5073.79335022 C2029.17836086 5076.0136494 2026.84566763 5078.39274988 2024.48522186 5080.81007385 C2020.75519563 5084.59687959 2016.92288108 5088.18404695 2012.87975311 5091.6342926 C2010.82720256 5093.44984763 2008.90776181 5095.35766921 2006.98522186 5097.31007385 C2004.5385875 5099.78970714 2002.06414412 5102.16447762 1999.42272186 5104.43507385 C1995.38167476 5107.91021495 1991.49729643 5111.54009915 1987.61022186 5115.18507385 C1981.79759779 5120.63208359 1975.92876726 5126.00583418 1969.98522186 5131.31007385 C1968.31790256 5132.80934838 1966.6512462 5134.30936046 1964.98522186 5135.81007385 C1964.1589328 5136.55257385 1963.33264374 5137.29507385 1962.48131561 5138.06007385 C1960.82299203 5139.55490074 1959.16929745 5141.05487966 1957.52037811 5142.56007385 C1953.32878454 5146.37422535 1949.08916534 5150.07021714 1944.67272186 5153.62257385 C1940.45125811 5157.03427869 1936.44428119 5160.60305013 1932.48522186 5164.31007385 C1927.67973517 5168.80964097 1922.7336147 5173.04110421 1917.59850311 5177.1655426 C1914.98674563 5179.30882341 1912.48156885 5181.53387715 1909.98522186 5183.81007385 C1905.74220716 5187.67221952 1901.36179321 5191.31761694 1896.90319061 5194.92726135 C1893.73104543 5197.51763426 1890.60485809 5200.15698113 1887.48522186 5202.81007385 C1881.70999404 5207.71583029 1875.86374098 5212.52842128 1869.98522186 5217.31007385 C1868.15142307 5218.80950478 1866.31809243 5220.30950843 1864.48522186 5221.81007385 C1863.57256561 5222.55644104 1862.65990936 5223.30280823 1861.71959686 5224.0717926 C1859.93694563 5225.53101997 1858.15562911 5226.99187987 1856.37584686 5228.4546051 C1844.60923664 5238.11506172 1832.68619703 5247.57655075 1820.70153046 5256.96437073 C1819.00935723 5258.29115007 1817.3191881 5259.62043509 1815.62975311 5260.95069885 C1790.2907671 5280.90043658 1790.2907671 5280.90043658 1778.36412811 5289.7749176 C1775.58495874 5291.8503675 1772.82890159 5293.95504623 1770.07506561 5296.0639801 C1753.54192985 5308.72485384 1753.54192985 5308.72485384 1745.2252121 5314.58766174 C1740.32084525 5318.04867982 1735.4959195 5321.61204904 1730.67272186 5325.18507385 C1722.55522832 5331.18890694 1714.34710013 5337.04967059 1706.0779953 5342.84230042 C1703.25377869 5344.82307389 1700.43589799 5346.81275025 1697.61852264 5348.80323792 C1696.18778676 5349.81382407 1694.75646433 5350.82358029 1693.32457733 5351.83253479 C1689.97275722 5354.19485684 1686.62645761 5356.56375028 1683.29772186 5358.95851135 C1672.19101387 5366.91916291 1660.81361835 5374.46367609 1649.43175507 5382.02223206 C1641.3075282 5387.41887028 1633.214482 5392.85348879 1625.17272186 5398.37257385 C1615.2195338 5405.19136301 1605.13577922 5411.78959043 1594.98522186 5418.31007385 C1593.54106903 5419.23989075 1593.54106903 5419.23989075 1592.06774139 5420.18849182 C1576.78654862 5430.02418344 1561.42749423 5439.72937126 1545.98522186 5449.31007385 C1544.94784882 5449.95444397 1543.91047577 5450.59881409 1542.84166718 5451.26271057 C1526.92780529 5461.13767809 1510.88744434 5470.78116048 1494.74358368 5480.27497864 C1492.95387354 5481.32852768 1491.16539976 5482.38414547 1489.37731171 5483.44044495 C1473.67649633 5492.71534372 1457.88641562 5501.79546813 1441.94664764 5510.65577698 C1438.0813748 5512.81497638 1434.23397317 5515.00489045 1430.38634491 5517.19532776 C1418.13368257 5524.16523476 1405.75331814 5530.87943907 1393.32115936 5537.52296448 C1390.03777915 5539.28191816 1386.76072403 5541.05212466 1383.48522186 5542.82569885 C1339.85322106 5566.40856175 1295.55169377 5589.17884403 1250.41197968 5609.7334137 C1246.59768758 5611.48837938 1242.80152192 5613.2789233 1239.00865936 5615.0796051 C1154.1997815 5655.33119284 1066.85862956 5690.16864464 544.98522186 5838.31007385 C543.82919464 5838.52452148 542.67316742 5838.73896912 541.48210907 5838.95991516 C468.84432563 5852.40855137 395.78632098 5863.34376003 113.04772186 5886.49757385 C112.092164 5886.53459412 111.13660614 5886.57161438 110.15209198 5886.60975647 C103.44513036 5886.86333057 96.73724381 5887.06366992 90.02817133 5887.25218518 C88.65367559 5887.29113266 87.27919776 5887.33071647 85.90473768 5887.3709027 C49.36177367 5888.43902168 12.82507983 5888.45022082 -23.72937233 5888.42768476 C-32.76746478 5888.42233149 -41.80555469 5888.4230282 -50.84364834 5888.42382132 C-67.51220838 5888.42512345 -84.1807644 5888.4218392 -100.84932327 5888.41580391 C-117.31779119 5888.40985655 -133.78625743 5888.40603189 -150.25472641 5888.4049511 C-151.28439274 5888.40488236 -152.31405907 5888.40481362 -153.3749274 5888.40474279 C-158.60554876 5888.40440439 -163.83617013 5888.40410303 -169.06679149 5888.40381592 C-205.9723064 5888.40172379 -242.87781914 5888.39500977 -279.78333282 5888.38551331 C-315.60331969 5888.3763069 -351.42330595 5888.3692341 -387.24329376 5888.36500549 C-388.35031521 5888.36487397 -389.45733666 5888.36474244 -390.59790422 5888.36460693 C-401.71657465 5888.36328824 -412.83524508 5888.36201245 -423.95391552 5888.36076807 C-446.59746359 5888.35823287 -469.24101162 5888.35541162 -491.88455963 5888.35241699 C-492.92533354 5888.3522797 -493.96610745 5888.35214241 -495.03841996 5888.35200096 C-564.36387359 5888.34282339 -633.68932602 5888.32698099 -703.01477814 5888.31007385 C-702.3552693 5884.07439184 -701.43245841 5880.42396648 -699.82971954 5876.44215393 C-699.36622101 5875.28207825 -698.90272247 5874.12200256 -698.42517853 5872.92677307 C-697.90566664 5871.64434293 -697.38605005 5870.36195521 -696.86634064 5869.0796051 C-696.31348992 5867.7026178 -695.76117915 5866.32541361 -695.20935822 5864.94801331 C-694.00284333 5861.93993378 -692.79242202 5858.93346565 -691.57904816 5855.92814636 C-689.59649315 5851.01769646 -687.62236782 5846.10388249 -685.64905548 5841.18971252 C-682.71612733 5833.88847346 -679.77886173 5826.58899116 -676.83899689 5819.2905426 C-671.74491574 5806.64355144 -666.66060074 5793.9926424 -661.57727814 5781.34132385 C-659.76756466 5776.83749111 -657.95782445 5772.33366911 -656.14807892 5767.82984924 C-655.69571932 5766.7040574 -655.24335972 5765.57826555 -654.77729225 5764.4183588 C-651.54612348 5756.37721088 -648.31363109 5748.33659579 -645.08069611 5740.29615784 C-633.94676741 5712.6038631 -622.84001779 5684.90088939 -611.76477814 5657.18507385 C-603.27596198 5635.94289412 -594.7737153 5614.70659369 -586.20227814 5593.49757385 C-575.2119092 5566.30211341 -564.26586284 5539.08889966 -553.32727814 5511.87257385 C-552.86529148 5510.72315811 -552.40330482 5509.57374237 -551.92731857 5508.38949585 C-541.54392605 5482.55512521 -531.16992083 5456.71703987 -520.83118439 5430.86476135 C-520.22449008 5429.34773149 -520.22449008 5429.34773149 -519.60553932 5427.80005455 C-515.79101885 5418.26123715 -511.97806869 5408.72179445 -508.16865158 5399.18093777 C-500.72417899 5380.53684006 -493.24563985 5361.90730584 -485.70474052 5343.30198479 C-476.78192345 5321.28646939 -467.9215874 5299.24592404 -459.06567383 5277.20342636 C-457.6787883 5273.75161004 -456.29166384 5270.29988981 -454.90448761 5266.84819031 C-444.854949 5241.84110038 -434.81522063 5216.83012462 -424.80774689 5191.8061676 C-424.20210057 5190.29175772 -424.20210057 5190.29175772 -423.58421898 5188.74675369 C-419.77737044 5179.22711629 -415.97210407 5169.70684887 -412.17034721 5160.18517685 C-404.73099791 5141.55391728 -397.25766503 5122.93719039 -389.721838 5104.34472847 C-380.71264681 5082.11638516 -371.76811403 5059.86212876 -362.82685852 5037.60638809 C-361.42839079 5034.12561853 -360.02968709 5030.64494388 -358.63092804 5027.16429138 C-349.01833504 5003.24374307 -339.41137179 4979.3209682 -329.83899689 4955.3842926 C-329.48368582 4954.49581886 -329.12837475 4953.60734512 -328.76229668 4952.69194794 C-325.48349449 4944.49247573 -322.20614847 4936.29242432 -318.93261528 4928.09084702 C-311.18585609 4908.68320499 -303.38367952 4889.29843035 -295.55364037 4869.92423439 C-285.85828493 4845.93444903 -276.199253 4821.93016099 -266.55260468 4797.92075348 C-265.17161351 4794.48375604 -263.79042021 4791.04683988 -262.40918732 4787.60993958 C-250.16666439 4757.14604159 -237.94859724 4726.67249523 -225.76477814 4696.18507385 C-217.27567776 4674.94300649 -208.77371601 4653.70659545 -200.20227814 4632.49757385 C-189.2119092 4605.30211341 -178.26586284 4578.08889966 -167.32727814 4550.87257385 C-166.86529148 4549.72315811 -166.40330482 4548.57374237 -165.92731857 4547.38949585 C-155.54392605 4521.55512521 -145.16992083 4495.71703987 -134.83118439 4469.86476135 C-134.22449008 4468.34773149 -134.22449008 4468.34773149 -133.60553932 4466.80005455 C-129.79109197 4457.26142 -125.97821899 4447.72215853 -122.16886902 4438.18148708 C-114.77281837 4419.65862458 -107.34911297 4401.14733192 -99.87024689 4382.6577301 C-99.51677059 4381.78319624 -99.1632943 4380.90866238 -98.7991066 4380.00762749 C-93.53252879 4366.98152724 -88.18111447 4353.99567142 -82.6629715 4341.07374573 C-80.83374045 4333.2745384 -82.27092158 4324.94487828 -83.33818817 4317.11611938 C-83.48102779 4316.02917139 -83.6238674 4314.94222339 -83.77103549 4313.82233757 C-84.24999632 4310.1898795 -84.73823399 4306.55873057 -85.22644806 4302.92750549 C-85.57470264 4300.30109016 -85.92243733 4297.67461078 -86.26953125 4295.0480423 C-87.02216637 4289.36056349 -87.77958389 4283.67373792 -88.540205 4277.98732185 C-89.66015238 4269.61438215 -90.7726227 4261.24046136 -91.88344953 4252.86630737 C-93.73320931 4238.92306055 -95.58884892 4224.98060246 -97.44788361 4211.03858948 C-99.99079801 4191.9673771 -102.52618584 4172.89516969 -105.05949855 4153.82267976 C-106.22213775 4145.06957516 -107.38509369 4136.31651264 -108.54813385 4127.5634613 C-108.66319458 4126.69750028 -108.77825532 4125.83153926 -108.89680274 4124.939337 C-110.64448065 4111.78646552 -112.39362747 4098.63378991 -114.14377594 4085.48124695 C-114.25844534 4084.61948957 -114.37311474 4083.7577322 -114.49125896 4082.86986096 C-114.95080403 4079.41633837 -115.41035648 4075.96281675 -115.86991414 4072.50929583 C-120.49870873 4037.72435441 -125.11789595 4002.9381625 -129.72180939 3968.1499176 C-129.86601743 3967.06029779 -130.01022548 3965.97067798 -130.15880346 3964.84803939 C-131.58054671 3954.10535421 -133.00195172 3943.36262431 -134.42308152 3932.61985797 C-136.26314434 3918.7103866 -138.10448423 3904.80108458 -139.94641876 3890.89186096 C-140.16189161 3889.26473315 -140.16189161 3889.26473315 -140.38171744 3887.60473406 C-141.11500561 3882.06741632 -141.84831618 3876.53010155 -142.58163834 3870.99278831 C-143.47559346 3864.24250355 -144.3694758 3857.49220914 -145.26334381 3850.74191284 C-148.66251284 3825.07221926 -152.06194713 3799.40256082 -155.46155548 3773.73292542 C-155.55715324 3773.01108831 -155.65275099 3772.2892512 -155.75124565 3771.54554024 C-157.95229906 3754.9258901 -160.15342606 3738.30624971 -162.35473324 3721.68663318 C-163.18206179 3715.44039308 -164.0093819 3709.19415187 -164.83670059 3702.94791046 C-165.04551711 3701.37135122 -165.25433418 3699.79479205 -165.46315178 3698.21823296 C-168.19376794 3677.60224674 -170.92379967 3656.98618327 -173.65303046 3636.3700136 C-173.75676158 3635.5864457 -173.86049269 3634.8028778 -173.96736717 3633.99556541 C-174.0711655 3633.21148959 -174.17496382 3632.42741376 -174.28190755 3631.61957806 C-176.19322194 3617.18191835 -178.10486566 3602.74430225 -180.01667291 3588.3067078 C-180.23161555 3586.6834988 -180.44655606 3585.06028953 -180.66149443 3583.43707997 C-187.18866937 3534.14406343 -193.73078618 3484.85304754 -200.28359181 3435.56343187 C-202.14489438 3421.56275277 -204.00521695 3407.56194377 -205.86467743 3393.5610199 C-205.98579123 3392.64910068 -206.10690503 3391.73718146 -206.23168894 3390.79762833 C-207.32440481 3382.57003611 -208.41706487 3374.34243649 -209.50954235 3366.11481261 C-212.23704707 3345.57355933 -214.96693566 3325.03262789 -217.70258956 3304.49245819 C-219.59641612 3290.2725471 -221.48658158 3276.05215332 -223.37300402 3261.83125806 C-224.49641721 3253.36332218 -225.62282745 3244.89579711 -226.75344018 3236.42881943 C-227.50999716 3230.76094904 -228.2627863 3225.09258653 -229.01251247 3219.42380857 C-229.44025398 3216.1904592 -229.87023088 3212.95743539 -230.30367029 3209.72484422 C-230.77040884 3206.24200029 -231.23074226 3202.75836777 -231.68946075 3199.27445984 C-231.82558976 3198.27037771 -231.96171876 3197.26629559 -232.10197288 3196.23178673 C-232.22361358 3195.2978194 -232.34525427 3194.36385208 -232.47058105 3193.40158272 C-232.57648418 3192.60535566 -232.6823873 3191.80912861 -232.79149961 3190.98877347 C-233.08724058 3187.44073309 -233.01477814 3183.87041839 -233.01477814 3180.31007385 C-1126.32477814 3180.31007385 -2019.63477814 3180.31007385 -2940.01477814 3180.31007385 C-2940.01477814 2736.68458027 -2940.01477814 2736.68458027 -2801.87812042 2052.97370911 C-2800.96371034 2050.15251643 -2800.0539375 2047.32985964 -2799.14514923 2044.5068512 C-2767.26045563 1945.49369651 -2730.50449174 1847.71656739 -2679.74832916 1736.22047424 C-2677.62025248 1731.64033428 -2675.53646855 1727.04195356 -2673.47571564 1722.4311676 C-2665.3141705 1704.20026543 -2656.69508561 1686.22005617 -2647.86585236 1668.30274963 C-2646.97015888 1666.48488983 -2646.07448798 1664.66701889 -2645.17884064 1662.84913635 C-2644.74366119 1661.96639542 -2644.30848175 1661.08365448 -2643.86011505 1660.17416382 C-2640.53459171 1653.41120799 -2637.28852029 1646.61295621 -2634.10233307 1639.7832489 C-2631.59709689 1634.43943215 -2628.91231785 1629.20734376 -2626.13977814 1623.99757385 C-2625.6765213 1623.12576477 -2625.21326447 1622.25395569 -2624.73596954 1621.35572815 C-2624.366492 1620.66390442 -2623.99701447 1619.97208069 -2623.61634064 1619.2592926 C-2620.82452994 1613.98787141 -2618.16609411 1608.65319457 -2615.51477814 1603.31007385 C-2610.50044602 1593.22634549 -2605.32225132 1583.24233928 -2600.01477814 1573.31007385 C-2599.2517337 1571.88066467 -2599.2517337 1571.88066467 -2598.47327423 1570.42237854 C-2575.33924941 1527.14025621 -2551.14655659 1484.46379678 -2526.01477814 1442.31007385 C-2525.38039825 1441.2436969 -2524.74601837 1440.17731995 -2524.09241486 1439.07862854 C-2514.9359442 1423.69273638 -2505.56274924 1408.45587175 -2496.01477814 1393.31007385 C-2495.48787384 1392.47282776 -2494.96096954 1391.63558167 -2494.41809845 1390.77296448 C-2491.45940329 1386.07173658 -2488.49139989 1381.37651837 -2485.51721954 1376.68507385 C-2483.98387356 1374.26122112 -2482.45800193 1371.8327746 -2480.93274689 1369.40382385 C-2471.60054967 1354.58806304 -2461.89033341 1340.03256748 -2452.14733124 1325.48551941 C-2449.10948724 1320.94924614 -2446.07986064 1316.40762185 -2443.05774689 1311.8608551 C-2431.10107213 1293.87491937 -2418.9945525 1276.01173763 -2406.49427032 1258.39845276 C-2405.00977662 1256.30301396 -2403.53089473 1254.20373094 -2402.05384064 1252.1030426 C-2390.84087171 1236.15980396 -2379.38272948 1220.40263609 -2367.79846954 1204.72755432 C-2365.98501194 1202.269731 -2364.17690063 1199.80805816 -2362.37024689 1197.3452301 C-2356.11519697 1188.82274567 -2349.80473296 1180.3591666 -2343.32483673 1172.00587463 C-2341.33963597 1169.43613842 -2339.37229918 1166.85285462 -2337.40320587 1164.27076721 C-2330.00303518 1154.56817417 -2322.52477311 1144.92782154 -2315.01477814 1135.31007385 C-2314.52767365 1134.68503967 -2314.04056915 1134.06000549 -2313.53870392 1133.41603088 C-2307.73013448 1125.96471588 -2301.83023287 1118.59537927 -2295.85486603 1111.27711487 C-2292.3133286 1106.9323313 -2288.83313734 1102.5454187 -2285.38977814 1098.12257385 C-2281.3561795 1092.94750121 -2277.18845288 1087.90833131 -2272.92615509 1082.92042542 C-2270.24832713 1079.78311686 -2267.63323659 1076.60976916 -2265.07727814 1073.37257385 C-2261.341624 1068.65707601 -2257.43412274 1064.10417139 -2253.50501251 1059.55030823 C-2250.47508789 1056.03254668 -2247.49882688 1052.48154582 -2244.57727814 1048.87257385 C-2239.96090535 1043.1896023 -2235.16291085 1037.67401118 -2230.35462189 1032.15382385 C-2227.13423248 1028.45519586 -2223.9476517 1024.72847833 -2220.76477814 1020.99757385 C-2217.34051209 1016.98648129 -2213.87750539 1013.02351679 -2210.32727814 1009.12257385 C-2207.22509806 1005.71185869 -2204.28239539 1002.21273625 -2201.38977814 998.62257385 C-2198.32939459 994.83959974 -2195.17182499 991.3476603 -2191.67884064 987.96632385 C-2189.32860234 985.62711954 -2187.19468765 983.12123016 -2185.03040314 980.6108551 C-2181.71045253 976.82122156 -2178.27727912 973.13536903 -2174.85852814 969.43507385 C-2172.74168887 967.12893597 -2170.67693878 964.78273989 -2168.62415314 962.41944885 C-2165.09824433 958.37502405 -2161.45069423 954.45845281 -2157.76477814 950.56007385 C-2153.14403287 945.65568909 -2148.54966903 940.73146385 -2144.01477814 935.74757385 C-2140.6704788 932.08170727 -2137.26749932 928.52001539 -2133.72180939 925.05006409 C-2132.04067698 923.33647275 -2130.48997649 921.56158915 -2128.93665314 919.73194885 C-2123.7390705 913.75623576 -2118.0362464 908.28644557 -2112.39759064 902.73194885 C-2111.54938751 901.8914801 -2110.70118439 901.05101135 -2109.82727814 900.18507385 C-2109.07059845 899.43999573 -2108.31391876 898.6949176 -2107.53430939 897.92726135 C-2105.57473851 895.89173812 -2103.73225366 893.83707903 -2101.89539337 891.69508362 C-2097.21853057 886.31061148 -2092.15824418 881.3091456 -2087.11243439 876.2749176 C-2086.06528678 875.2270944 -2085.01828748 874.17912295 -2083.97142792 873.13101196 C-2081.78868488 870.94680397 -2079.60416789 868.76439053 -2077.41834259 866.58326721 C-2074.6369139 863.80753504 -2071.86000037 861.02733603 -2069.08441257 858.24576473 C-2066.92676793 856.08448182 -2064.76671667 853.92561671 -2062.60596275 851.7674427 C-2061.58192043 850.74406065 -2060.55860139 849.71995424 -2059.53606606 848.69506645 C-2054.41630634 843.5661112 -2049.25561554 838.54482829 -2043.75206757 833.82498169 C-2041.2074069 831.6060501 -2038.85543682 829.24483457 -2036.48352814 826.84132385 C-2036.00331207 826.35732117 -2035.52309601 825.87331848 -2035.02832794 825.37464905 C-2033.52128407 823.85560076 -2032.01759128 822.33330697 -2030.51477814 820.81007385 C-2024.72056511 814.93713001 -2018.95132746 809.10958215 -2012.67298126 803.74562073 C-2010.50836407 801.87165884 -2008.50771305 799.86432984 -2006.51477814 797.81007385 C-2003.20278873 794.39617708 -1999.70932068 791.27617711 -1996.12024689 788.16163635 C-1992.76037863 785.20694701 -1989.51574611 782.1334815 -1986.26477814 779.06007385 C-1977.66838486 770.96935077 -1969.05584891 762.90358852 -1960.12805939 755.17726135 C-1957.97073393 753.27115864 -1955.8565356 751.32209468 -1953.74549103 749.36500549 C-1949.45727207 745.39156799 -1945.13825001 741.53597837 -1940.57727814 737.87257385 C-1936.39240014 734.50660724 -1932.4316735 730.97827745 -1928.51477814 727.31007385 C-1923.70933897 722.8104611 -1918.7631657 718.57903926 -1913.62805939 714.4546051 C-1911.0163019 712.3113243 -1908.51112512 710.08627055 -1906.01477814 707.81007385 C-1901.8174878 703.98836523 -1897.47767583 700.39533196 -1893.06555939 696.82569885 C-1889.49420816 693.88082025 -1886.0027472 690.8527796 -1882.51477814 687.81007385 C-1876.44437316 682.5199207 -1870.27689076 677.37265661 -1864.01477814 672.31007385 C-1862.28480056 670.89439755 -1860.55565577 669.47770306 -1858.82727814 668.06007385 C-1856.89021435 666.47620688 -1854.95266777 664.89293027 -1853.01477814 663.31007385 C-1852.41504181 662.81990784 -1851.81530548 662.32974182 -1851.19739532 661.82472229 C-1843.61996154 655.63540421 -1836.01436255 649.49065523 -1828.30017853 643.47242737 C-1823.8618236 640.00075603 -1819.49747631 636.44468263 -1815.13977814 632.87257385 C-1809.16131481 627.98136673 -1803.06457154 623.28535723 -1796.86365509 618.68043518 C-1792.63313405 615.5358012 -1788.4586789 612.3336812 -1784.32727814 609.06007385 C-1769.58710669 597.40261847 -1754.53911346 586.14956293 -1739.37952423 575.04542542 C-1736.94813013 573.2611647 -1734.52178277 571.47023713 -1732.09680939 569.67726135 C-1722.79619508 562.80160849 -1713.45886067 555.98734535 -1704.01477814 549.31007385 C-1703.36331818 548.84923401 -1702.71185822 548.38839417 -1702.04065704 547.91358948 C-1698.48719658 545.40092308 -1694.93157815 542.89134255 -1691.37415314 540.3842926 C-1688.48615158 538.34885909 -1685.60082707 536.30972372 -1682.71790314 534.2671051 C-1682.00287628 533.76098694 -1681.28784943 533.25486877 -1680.55115509 532.7334137 C-1679.23400063 531.80097191 -1677.91735316 530.86781311 -1676.60144806 529.93360901 C-1662.20764669 519.75177184 -1647.56922864 509.91698834 -1632.95227814 500.06007385 C-1631.52821655 499.09963669 -1631.52821655 499.09963669 -1630.07538605 498.11979675 C-1616.13594581 488.72263723 -1602.16438525 479.38884339 -1588.01477814 470.31007385 C-1587.00898712 469.66328674 -1586.00319611 469.01649963 -1584.96692657 468.35011292 C-1577.6603075 463.65315943 -1570.34155285 458.97551457 -1563.01477814 454.31007385 C-1562.1802713 453.77817444 -1561.34576447 453.24627502 -1560.48596954 452.69825745 C-1537.14472985 437.83507417 -1513.47947779 423.53359446 -1489.65540314 409.4624176 C-1486.45906044 407.57397296 -1483.2673327 405.67787567 -1480.07727814 403.77882385 C-1460.39959232 392.07742542 -1440.51469432 380.72706477 -1420.46839142 369.66944885 C-1417.65465436 368.11055453 -1414.84826036 366.53885441 -1412.04212189 364.96632385 C-1386.73578363 350.80499921 -1361.08858643 337.30417656 -1335.302742 324.03952026 C-1331.30581295 321.98132089 -1327.32012071 319.90256322 -1323.33899689 317.8139801 C-1293.05482434 301.9610491 -1262.28813867 286.99853184 -1231.20569611 272.77687073 C-1227.91788621 271.2655347 -1224.63918461 269.7358561 -1221.36243439 268.20069885 C-1134.0048612 227.29671135 -1044.09098944 191.55843162 -939.01477814 155.31007385 C-937.994888 154.96244995 -936.97499786 154.61482605 -935.92420197 154.25666809 C-839.73246196 121.5141826 -741.74184214 93.57737184 -152.1664505 3.5372467 C-149.42579954 3.38807199 -146.68539034 3.23530165 -143.94513702 3.07899475 C-95.98492502 0.3490862 -48.0241478 0.01971389 0 0 Z " fill="#3A3A3A" transform="translate(5903.014778137207,2963.689926147461)"/>
<path d="M0 0 C511.5 0 1023 0 1550 0 C1548.01611162 6.61296127 1545.98256401 12.88902983 1543.39453125 19.24365234 C1542.86691319 20.5547422 1542.86691319 20.5547422 1542.32863617 21.89231873 C1541.16066877 24.79185498 1539.98653065 27.68885158 1538.8125 30.5859375 C1537.97103587 32.6721552 1537.13002394 34.75855534 1536.28942871 36.84512329 C1534.48148136 41.33095521 1532.67104391 45.81577047 1530.85864258 50.29980469 C1526.20084402 61.82478447 1521.55860849 73.35603911 1516.9158268 84.88707447 C1516.15249825 86.78275475 1515.38900447 88.67836842 1514.62547302 90.57396698 C1504.28719557 116.24198381 1494.04473484 141.94776395 1483.82589722 167.66355133 C1468.68817394 205.75567194 1453.46211472 243.81111247 1438.15714264 281.83633041 C1424.15281693 316.63132746 1410.23119905 351.45825803 1396.375 386.3125 C1378.18198119 432.07561819 1359.84890416 477.78138837 1341.4572506 523.46500015 C1335.49768569 538.26867586 1329.55622644 553.07938737 1323.63772583 567.89953613 C1317.07565878 584.33072405 1310.50605202 600.75890376 1303.9375 617.1875 C1303.50956272 618.25784485 1303.08162544 619.3281897 1302.64072037 620.43096924 C1292.22564268 646.47994281 1281.7980046 672.52377961 1271.328125 698.55078125 C1270.89049898 699.63870657 1270.45287296 700.72663189 1270.00198555 701.84752464 C1267.78763428 707.35216272 1265.57306704 712.85671388 1263.35842896 718.36123657 C1262.46811494 720.57415596 1261.5778053 722.78707711 1260.6875 725 C1260.0215941 726.65515436 1260.0215941 726.65515436 1259.34223557 728.34374619 C1244.86754254 764.32388208 1230.48411424 800.3394933 1216.15685654 836.37857056 C1201.90350872 872.23106268 1187.56209157 908.04708635 1173.15625 943.83856201 C1159.19417386 978.52876581 1145.31415977 1013.2506367 1131.5 1048 C1116.79950322 1084.97893405 1102.01461533 1121.92278599 1087.15625 1158.83856201 C1073.19417386 1193.52876581 1059.31415977 1228.2506367 1045.5 1263 C1030.8047111 1299.9658337 1016.0267764 1336.89730875 1001.17187119 1373.79928589 C990.40911787 1400.53571005 979.67553905 1427.28334859 969.01953125 1454.0625 C968.77209278 1454.68428068 968.5246543 1455.30606136 968.26971769 1455.94668388 C963.22525126 1468.62298722 958.1847818 1481.30087496 953.15120411 1493.98150635 C951.404086 1498.38206243 949.65555942 1502.78205813 947.90683556 1507.18197632 C946.72463887 1510.1582472 945.54461227 1513.13537163 944.36470032 1516.11254883 C943.63428015 1517.95072918 942.90375127 1519.78886633 942.1730957 1521.62695312 C941.86722282 1522.40069023 941.56134995 1523.17442734 941.24620819 1523.97161102 C937.63456389 1533.04207962 933.79109395 1541.99615186 930 1551 C623.1 1551 316.2 1551 0 1551 C0 1039.17 0 527.34 0 0 Z " fill="#FEFEFE" transform="translate(2963,7300)"/>
<path d="M0 0 C3898.62 0 7797.24 0 11814 0 C11814 3898.95 11814 7797.9 11814 11815 C7915.38 11815 4016.76 11815 0 11815 C0 7916.05 0 4017.1 0 0 Z M3 5 C2.90184384 6.78105637 2.87503643 8.56605931 2.87505532 10.34981838 C2.87264123 11.52175534 2.87022714 12.69369229 2.86773989 13.90114249 C2.87018024 15.2091133 2.87262058 16.5170841 2.87513488 17.86469039 C2.87378461 19.24703815 2.87243434 20.62938592 2.87104315 22.05362301 C2.86769438 26.76413272 2.87157682 31.47461031 2.87532884 36.18511936 C2.8744127 39.58661864 2.87305778 42.98811781 2.8713008 46.38961676 C2.86771266 55.85132264 2.8704471 65.31301826 2.87410378 74.77472374 C2.87699154 85.07624412 2.8741015 95.37776308 2.8719285 105.67928341 C2.86890429 123.86881141 2.86965095 142.05833634 2.87276472 160.24786427 C2.87741998 187.56584066 2.87631571 214.88381472 2.87406598 242.2017913 C2.87038568 288.95447355 2.87149316 335.70715463 2.87511742 382.45983684 C2.87878726 430.06217458 2.88027694 477.66451164 2.87909889 525.26684952 C2.8790258 528.27452206 2.87895271 531.2821946 2.8788774 534.38100873 C2.87849438 549.7358804 2.8780762 565.09075207 2.87764605 580.44562375 C2.87457005 692.95752349 2.876458 805.46942273 2.88078487 917.98132241 C2.8852038 1033.31954266 2.88738176 1148.65776266 2.88692772 1263.995983 C2.88691429 1267.65653918 2.88690085 1271.31709535 2.88688701 1275.08857747 C2.88676311 1308.6391577 2.88661497 1342.18973792 2.88643777 1375.74031815 C2.88599564 1459.63358422 2.88587765 1543.52685029 2.88597828 1627.42011636 C2.88598264 1631.25438591 2.88598699 1635.08865546 2.88599147 1639.039115 C2.88623371 1827.04739325 2.89018249 2015.05567139 2.89442444 2203.06394958 C2.8958853 2267.92030589 2.89733271 2332.77666219 2.89871979 2397.63301849 C2.89880511 2401.62012821 2.89889042 2405.60723792 2.89897833 2409.71516913 C2.90088401 2499.21959571 2.90253251 2588.72402228 2.90330315 2678.22844887 C2.90333132 2681.43880863 2.9033595 2684.64916839 2.90338853 2687.95681178 C2.90508721 2889.0453859 2.90491365 3090.13396006 2.90539551 3291.22253418 C2.91065326 4163.6691895 2.92461427 5036.11584476 2.9375 5908.5625 C2.958125 7856.696875 2.97875 9804.83125 3 11812 C3899.64 11812 7796.28 11812 11811 11812 C11811 7915.36 11811 4018.72 11811 4 C9862.865625 3.979375 7914.73125 3.95875 5907.5625 3.9375 C5291.16318604 3.928396 4674.76387207 3.91929199 4039.68579102 3.90991211 C3489.83855439 3.90656884 3489.83855439 3.90656884 2939.99131775 3.90455627 C2728.13775038 3.90374995 2728.13775038 3.90374995 2677.22844887 3.90330315 C2673.67449515 3.90327255 2670.12054144 3.90324195 2666.45889216 3.90321042 C2576.51693426 3.90241102 2486.57497638 3.90064441 2396.63301849 3.89871979 C2390.64975212 3.89859182 2390.64975212 3.89859182 2384.54561168 3.89846127 C2319.65513819 3.897069 2254.76466469 3.8956135 2189.8741912 3.89414941 C2002.05616626 3.88991258 1814.23814136 3.88619155 1626.42011636 3.88597828 C1622.58984591 3.88597369 1618.75957545 3.88596909 1614.81323619 3.88596436 C1531.03809921 3.88587356 1447.26296223 3.88605473 1363.48782524 3.8864972 C1329.9905445 3.88666968 1296.49326375 3.88680478 1262.995983 3.88692772 C1257.51569601 3.8869493 1257.51569601 3.8869493 1251.92469616 3.88697131 C1136.78039887 3.88740693 1021.63610194 3.88480958 906.49180475 3.88038147 C794.38350539 3.87608197 682.27520647 3.87476543 570.16690706 3.87790598 C554.86688788 3.8783341 539.5668687 3.87872707 524.26684952 3.87909889 C519.77341698 3.87921009 519.77341698 3.87921009 515.18920804 3.87932354 C467.71050103 3.88040651 420.2317948 3.87812302 372.75308795 3.87444247 C326.33984756 3.87091208 279.9266083 3.87087685 233.51336791 3.87469915 C206.37144363 3.87682697 179.22952274 3.87618526 152.08759875 3.87153899 C134.16826015 3.8687392 116.24892409 3.869488 98.32958567 3.8732679 C88.15468727 3.87531128 77.97979561 3.87572892 67.80489762 3.87179661 C58.6076112 3.86826978 49.4103373 3.86922397 40.21305154 3.87397465 C36.89250227 3.87486898 33.57195205 3.87404392 30.25140372 3.87139903 C25.78915016 3.86807937 21.32694202 3.87077617 16.86469039 3.87513488 C15.55671958 3.87269453 14.24874877 3.87025419 12.90114249 3.86773989 C11.72920553 3.87015398 10.55726858 3.87256807 9.34981838 3.87505532 C7.82418448 3.87503916 7.82418448 3.87503916 6.26772969 3.87502269 C4.03231493 3.7453101 4.03231493 3.7453101 3 5 Z " fill="#2D262E" transform="translate(0,0)"/>
</svg>