<svg xmlns="http://www.w3.org/2000/svg" viewBox="0 0 800 800">
  <circle cx="400" cy="400" r="350" fill="#1a1a1a" stroke="#1a1a1a" stroke-width="20"/>
  <g transform="translate(400, 400)">
    <!-- Crown -->
    <path d="M-200,-200 L-100,-100 L0,-200 L100,-100 L200,-200 L150,-50 L-150,-50 Z" fill="#8cc63f" stroke="#1a1a1a" stroke-width="10"/>
    
    <!-- Burger -->
    <g transform="translate(0, 50)">
      <!-- Top bun -->
      <path d="M-150,-100 Q-150,-150 0,-150 Q150,-150 150,-100 L150,-50 Q150,0 0,0 Q-150,0 -150,-50 Z" fill="#8cc63f" stroke="#1a1a1a" stroke-width="10"/>
      
      <!-- Dots on top bun -->
      <circle cx="-100" cy="-100" r="10" fill="#1a1a1a"/>
      <circle cx="-50" cy="-100" r="10" fill="#1a1a1a"/>
      <circle cx="0" cy="-100" r="10" fill="#1a1a1a"/>
      <circle cx="50" cy="-100" r="10" fill="#1a1a1a"/>
      <circle cx="-75" cy="-75" r="10" fill="#1a1a1a"/>
      <circle cx="-25" cy="-75" r="10" fill="#1a1a1a"/>
      <circle cx="25" cy="-75" r="10" fill="#1a1a1a"/>
      <circle cx="75" cy="-75" r="10" fill="#1a1a1a"/>
      
      <!-- Patty -->
      <path d="M-150,0 Q-150,50 0,50 Q150,50 150,0" fill="#1a1a1a" stroke="#1a1a1a" stroke-width="5"/>
      
      <!-- Wavy line -->
      <path d="M-150,50 C-100,25 -50,75 0,50 C50,25 100,75 150,50" fill="none" stroke="#1a1a1a" stroke-width="15"/>
      
      <!-- Cheese -->
      <path d="M-150,50 L150,50 L125,100 L-125,100 Z" fill="#e69c4f" stroke="#1a1a1a" stroke-width="5"/>
      
      <!-- Bottom bun -->
      <path d="M-150,100 Q-150,150 0,150 Q150,150 150,100" fill="#8cc63f" stroke="#1a1a1a" stroke-width="10"/>
      
      <!-- Dots on bottom bun -->
      <circle cx="-100" cy="125" r="10" fill="#1a1a1a"/>
      <circle cx="-50" cy="125" r="10" fill="#1a1a1a"/>
      <circle cx="0" cy="125" r="10" fill="#1a1a1a"/>
      <circle cx="50" cy="125" r="10" fill="#1a1a1a"/>
      <circle cx="-75" cy="100" r="10" fill="#1a1a1a"/>
      <circle cx="-25" cy="100" r="10" fill="#1a1a1a"/>
      <circle cx="25" cy="100" r="10" fill="#1a1a1a"/>
      <circle cx="75" cy="100" r="10" fill="#1a1a1a"/>
    </g>
    
    <!-- Text -->
    <text x="-150" y="-150" font-family="Arial Black" font-size="40" font-weight="bold" fill="#1a1a1a" transform="rotate(-45)">S</text>
    <text x="-100" y="-200" font-family="Arial Black" font-size="40" font-weight="bold" fill="#1a1a1a" transform="rotate(-30)">I</text>
    <text x="-50" y="-230" font-family="Arial Black" font-size="40" font-weight="bold" fill="#1a1a1a" transform="rotate(-15)">N</text>
    <text x="0" y="-240" font-family="Arial Black" font-size="40" font-weight="bold" fill="#1a1a1a" transform="rotate(0)">C</text>
    <text x="50" y="-230" font-family="Arial Black" font-size="40" font-weight="bold" fill="#1a1a1a" transform="rotate(15)">E</text>
    <text x="100" y="-200" font-family="Arial Black" font-size="40" font-weight="bold" fill="#1a1a1a" transform="rotate(30)">2</text>
    <text x="150" y="-150" font-family="Arial Black" font-size="40" font-weight="bold" fill="#1a1a1a" transform="rotate(45)">0</text>
    <text x="200" y="-100" font-family="Arial Black" font-size="40" font-weight="bold" fill="#1a1a1a" transform="rotate(60)">2</text>
    <text x="230" y="-50" font-family="Arial Black" font-size="40" font-weight="bold" fill="#1a1a1a" transform="rotate(75)">5</text>
    
    <text x="-230" y="50" font-family="Arial Black" font-size="40" font-weight="bold" fill="#1a1a1a" transform="rotate(-75)">F</text>
    <text x="-200" y="100" font-family="Arial Black" font-size="40" font-weight="bold" fill="#1a1a1a" transform="rotate(-60)">A</text>
    <text x="-150" y="150" font-family="Arial Black" font-size="40" font-weight="bold" fill="#1a1a1a" transform="rotate(-45)">S</text>
    <text x="-100" y="200" font-family="Arial Black" font-size="40" font-weight="bold" fill="#1a1a1a" transform="rotate(-30)">T</text>
    <text x="-50" y="230" font-family="Arial Black" font-size="40" font-weight="bold" fill="#1a1a1a" transform="rotate(-15)">P</text>
    <text x="0" y="240" font-family="Arial Black" font-size="40" font-weight="bold" fill="#1a1a1a" transform="rotate(0)">O</text>
    <text x="50" y="230" font-family="Arial Black" font-size="40" font-weight="bold" fill="#1a1a1a" transform="rotate(15)">S</text>
  </g>
</svg>